<svg width="115" height="39" viewBox="0 0 115 39" fill="none" xmlns="http://www.w3.org/2000/svg">
<rect x="0.75" width="114" height="39" rx="2" fill="#053DB4"/>
<path d="M19.142 19.24C20.07 19.352 20.886 19.784 21.59 20.536C22.31 21.288 22.67 22.344 22.67 23.704C22.67 25.048 22.134 26.104 21.062 26.872C20.006 27.624 18.454 28 16.406 28H9.83L9.758 27.16C10.43 26.888 11.118 26.696 11.822 26.584C11.726 20.408 11.646 15.776 11.582 12.688C11.038 12.592 10.334 12.4 9.47 12.112C9.518 11.52 9.558 11.216 9.59 11.2H15.614C17.758 11.2 19.214 11.384 19.982 11.752C20.35 11.928 20.718 12.16 21.086 12.448C21.822 13.024 22.19 13.976 22.19 15.304C22.19 15.976 22.07 16.584 21.83 17.128C21.606 17.656 21.31 18.064 20.942 18.352C20.27 18.88 19.67 19.176 19.142 19.24ZM16.526 20.272H13.862C13.83 21.648 13.798 23.68 13.766 26.368H16.31C18.966 26.368 20.294 25.376 20.294 23.392C20.294 22.24 19.982 21.432 19.358 20.968C18.75 20.504 17.806 20.272 16.526 20.272ZM15.374 12.88L13.934 12.904C13.902 14.376 13.886 16.288 13.886 18.64H16.238C17.646 18.64 18.582 18.376 19.046 17.848C19.526 17.304 19.766 16.448 19.766 15.28C19.766 13.68 18.302 12.88 15.374 12.88ZM30.8272 26.656C31.5312 26.656 32.6352 26.32 34.1392 25.648C34.4432 26.064 34.6032 26.432 34.6192 26.752C33.8032 27.232 33.0032 27.608 32.2192 27.88C31.4352 28.152 30.8752 28.288 30.5392 28.288C28.6832 28.288 27.2672 27.736 26.2912 26.632C25.3152 25.512 24.8272 23.952 24.8272 21.952C24.8272 19.952 25.2992 18.384 26.2432 17.248C27.2032 16.096 28.6352 15.52 30.5392 15.52C32.0112 15.52 33.1312 16.048 33.8992 17.104C34.6832 18.16 35.0752 19.576 35.0752 21.352C34.9472 21.576 34.8432 21.728 34.7632 21.808L27.0352 21.688C27.0512 23.304 27.3312 24.536 27.8752 25.384C28.4352 26.232 29.4192 26.656 30.8272 26.656ZM32.8912 20.32C32.8912 19.264 32.6992 18.448 32.3152 17.872C31.9312 17.28 31.2912 16.984 30.3952 16.984C29.4992 16.984 28.6992 17.152 27.9952 17.488C27.5152 18.448 27.2112 19.432 27.0832 20.44C28.3472 20.424 30.2832 20.384 32.8912 20.32ZM44.3804 17.536C44.3004 17.456 44.1244 17.416 43.8524 17.416C43.5804 17.416 43.1724 17.512 42.6284 17.704C42.1004 17.896 41.6204 18.12 41.1884 18.376C41.0924 21.928 41.0284 24.592 40.9964 26.368L43.0124 26.56C43.0124 27.008 42.8764 27.488 42.6044 28H37.0844L37.0124 27.16C37.7484 26.904 38.4684 26.712 39.1724 26.584C39.0764 22.52 38.9964 19.512 38.9324 17.56C38.0524 17.512 37.3484 17.416 36.8204 17.272L36.9164 16.024C37.7644 15.784 39.0204 15.664 40.6844 15.664C40.9404 16.064 41.1004 16.576 41.1644 17.2C43.0044 16.08 44.1004 15.52 44.4524 15.52C44.8044 15.52 45.2124 15.592 45.6764 15.736C46.1404 15.864 46.4844 16.008 46.7084 16.168C46.7084 17.768 46.5564 19.072 46.2524 20.08C46.0284 20.144 45.7644 20.176 45.4604 20.176C45.1724 20.176 44.9724 20.168 44.8604 20.152L44.3804 17.536ZM51.0337 10.024C51.5297 10.024 51.8817 10.04 52.0897 10.072C52.0897 10.568 51.9857 11.208 51.7777 11.992C51.6817 16.216 51.6337 19.408 51.6337 21.568L55.4977 17.44L53.5777 17.248C53.5777 16.8 53.7137 16.32 53.9857 15.808H60.0817L60.1537 16.864C59.7857 17.008 59.1137 17.192 58.1377 17.416L54.8497 20.392L58.9057 26.368L60.9217 26.56C60.9217 27.008 60.7857 27.488 60.5137 28H57.2257L53.4817 21.616L51.6097 23.32C51.5777 24.664 51.5617 25.68 51.5617 26.368L53.5777 26.56C53.5777 27.008 53.4417 27.488 53.1697 28H47.6497L47.5777 27.16C48.3137 26.904 49.0337 26.712 49.7377 26.584C49.6417 20.12 49.5617 15.232 49.4977 11.92C48.6177 11.872 47.9137 11.776 47.3857 11.632L47.4817 10.384C48.2977 10.144 49.4817 10.024 51.0337 10.024ZM68.0694 26.656C68.7734 26.656 69.8774 26.32 71.3814 25.648C71.6854 26.064 71.8454 26.432 71.8614 26.752C71.0454 27.232 70.2454 27.608 69.4614 27.88C68.6774 28.152 68.1174 28.288 67.7814 28.288C65.9254 28.288 64.5094 27.736 63.5334 26.632C62.5574 25.512 62.0694 23.952 62.0694 21.952C62.0694 19.952 62.5414 18.384 63.4854 17.248C64.4454 16.096 65.8774 15.52 67.7814 15.52C69.2534 15.52 70.3734 16.048 71.1414 17.104C71.9254 18.16 72.3174 19.576 72.3174 21.352C72.1894 21.576 72.0854 21.728 72.0054 21.808L64.2774 21.688C64.2934 23.304 64.5734 24.536 65.1174 25.384C65.6774 26.232 66.6614 26.656 68.0694 26.656ZM70.1334 20.32C70.1334 19.264 69.9414 18.448 69.5574 17.872C69.1734 17.28 68.5334 16.984 67.6374 16.984C66.7414 16.984 65.9414 17.152 65.2374 17.488C64.7574 18.448 64.4534 19.432 64.3254 20.44C65.5894 20.424 67.5254 20.384 70.1334 20.32ZM77.4946 10.168C77.9906 10.168 78.3426 10.184 78.5506 10.216C78.5506 10.776 78.4466 11.416 78.2386 12.136C78.0946 21.576 78.0226 26.32 78.0226 26.368L80.0386 26.56C80.0386 27.008 79.9026 27.488 79.6306 28H74.1106L74.0386 27.16C74.7746 26.904 75.4946 26.712 76.1986 26.584L75.9586 12.064C75.0786 12.016 74.3746 11.92 73.8466 11.776L73.9426 10.528C74.7586 10.288 75.9426 10.168 77.4946 10.168ZM87.4288 26.656C88.1328 26.656 89.2368 26.32 90.7408 25.648C91.0448 26.064 91.2048 26.432 91.2208 26.752C90.4048 27.232 89.6048 27.608 88.8208 27.88C88.0368 28.152 87.4768 28.288 87.1408 28.288C85.2848 28.288 83.8688 27.736 82.8928 26.632C81.9168 25.512 81.4288 23.952 81.4288 21.952C81.4288 19.952 81.9008 18.384 82.8448 17.248C83.8048 16.096 85.2368 15.52 87.1408 15.52C88.6128 15.52 89.7328 16.048 90.5008 17.104C91.2848 18.16 91.6768 19.576 91.6768 21.352C91.5488 21.576 91.4448 21.728 91.3648 21.808L83.6367 21.688C83.6528 23.304 83.9328 24.536 84.4768 25.384C85.0368 26.232 86.0208 26.656 87.4288 26.656ZM89.4928 20.32C89.4928 19.264 89.3008 18.448 88.9168 17.872C88.5328 17.28 87.8928 16.984 86.9968 16.984C86.1008 16.984 85.3008 17.152 84.5968 17.488C84.1168 18.448 83.8128 19.432 83.6848 20.44C84.9488 20.424 86.8848 20.384 89.4928 20.32ZM96.11 32.464C96.718 32.464 97.31 31.88 97.886 30.712C98.478 29.544 98.814 28.64 98.894 28H98.318L94.526 17.44L92.51 17.248C92.51 16.8 92.646 16.32 92.918 15.808H98.438L98.51 16.648C97.998 16.872 97.43 17.048 96.806 17.176L98.894 23.728L99.446 25.84H99.686L102.566 17.176L100.55 16.648L100.622 15.808H106.022C106.294 16.32 106.43 16.8 106.43 17.248C105.774 17.328 105.118 17.384 104.462 17.416C104.046 18.632 103.422 20.448 102.59 22.864C101.774 25.28 101.126 27.152 100.646 28.48C100.182 29.808 99.718 30.888 99.254 31.72C98.79 32.552 98.326 33.104 97.862 33.376C97.414 33.664 96.91 33.808 96.35 33.808C95.358 33.808 94.43 33.616 93.566 33.232L93.134 33.016C93.246 31.192 93.318 30.192 93.35 30.016C93.478 29.968 93.942 29.944 94.742 29.944L95.558 32.392C95.702 32.44 95.886 32.464 96.11 32.464Z" fill="#FEC03B"/>
</svg>
