<svg width="51" height="46" viewBox="0 0 51 46" fill="none" xmlns="http://www.w3.org/2000/svg">
<path d="M25.5016 1.6665C30.4645 1.66697 35.3052 3.20597 39.3572 6.07157C43.4091 8.93718 46.4731 12.9885 48.1272 17.6676C49.7812 22.3467 49.944 27.4235 48.5932 32.199C47.2424 36.9745 44.4443 41.2138 40.5843 44.3332H10.419C6.55895 41.2138 3.76089 36.9745 2.41005 32.199C1.05922 27.4235 1.22204 22.3467 2.87611 17.6676C4.53018 12.9885 7.59414 8.93718 11.6461 6.07157C15.6981 3.20597 20.5388 1.66697 25.5016 1.6665Z" stroke="#295BAD" stroke-width="3" stroke-linecap="round" stroke-linejoin="round"/>
<path d="M46.8331 15H23.3664C22.9606 15.0005 22.5603 15.0936 22.196 15.2722C21.8317 15.4508 21.5129 15.7102 21.2639 16.0307C21.015 16.3511 20.8425 16.7241 20.7595 17.1213C20.6765 17.5185 20.6853 17.9294 20.7851 18.3227C22.1362 23.656 25.0411 27.4373 29.4997 29.6667C34.8331 32.3333 41.0553 33.6667 48.1664 33.6667" stroke="#295BAD" stroke-width="3" stroke-linecap="round" stroke-linejoin="round"/>
</svg>
