<svg width="27" height="28" viewBox="0 0 27 28" fill="none" xmlns="http://www.w3.org/2000/svg">
<path d="M12.166 7.33317H14.8327V9.99984H12.166V7.33317ZM12.166 12.6665H14.8327V20.6665H12.166V12.6665ZM13.4993 0.666504C6.13935 0.666504 0.166016 6.63984 0.166016 13.9998C0.166016 21.3598 6.13935 27.3332 13.4993 27.3332C20.8593 27.3332 26.8327 21.3598 26.8327 13.9998C26.8327 6.63984 20.8593 0.666504 13.4993 0.666504ZM13.4993 24.6665C7.61935 24.6665 2.83268 19.8798 2.83268 13.9998C2.83268 8.11984 7.61935 3.33317 13.4993 3.33317C19.3793 3.33317 24.166 8.11984 24.166 13.9998C24.166 19.8798 19.3793 24.6665 13.4993 24.6665Z" fill="#646464"/>
</svg>
