<svg width="24" height="24" viewBox="0 0 24 24" fill="none" xmlns="http://www.w3.org/2000/svg">
<g clip-path="url(#clip0_731_2811)">
<path d="M0.509876 11.8563C0.509318 13.8728 1.0362 15.8417 2.03806 17.5771L0.414062 23.5066L6.48216 21.9156C8.16052 22.8292 10.041 23.308 11.9519 23.3081H11.9569C18.2653 23.3081 23.4005 18.1748 23.4032 11.8653C23.4044 8.80792 22.2148 5.93295 20.0535 3.76997C17.8926 1.60718 15.0186 0.415458 11.9565 0.414062C5.64737 0.414062 0.512574 5.54709 0.509969 11.8563" fill="url(#paint0_linear_731_2811)"/>
<path d="M0.0995349 11.8527C0.0988837 13.9417 0.644651 15.981 1.68223 17.7786L0 23.9207L6.28567 22.2726C8.01758 23.2168 9.96754 23.7147 11.9517 23.7154H11.9568C18.4915 23.7154 23.8112 18.3975 23.814 11.8621C23.8151 8.69488 22.5827 5.71656 20.3442 3.47609C18.1054 1.23591 15.1287 0.00130233 11.9568 0C5.42102 0 0.10214 5.31721 0.0995349 11.8527ZM3.84288 17.469L3.60819 17.0965C2.62158 15.5277 2.10084 13.7149 2.10158 11.8534C2.10363 6.4213 6.52447 2.00186 11.9606 2.00186C14.5931 2.00298 17.0672 3.02921 18.928 4.89116C20.7887 6.7533 21.8127 9.22865 21.812 11.8614C21.8096 17.2935 17.3887 21.7135 11.9568 21.7135H11.9529C10.1843 21.7126 8.44967 21.2376 6.93693 20.34L6.57693 20.1265L2.84688 21.1045L3.84288 17.469Z" fill="url(#paint1_linear_731_2811)"/>
<path d="M8.99499 6.89746C8.77304 6.40416 8.53945 6.39421 8.32838 6.38556C8.15555 6.37811 7.95797 6.37867 7.76057 6.37867C7.56299 6.37867 7.24197 6.453 6.97062 6.74928C6.69899 7.04583 5.93359 7.76249 5.93359 9.22007C5.93359 10.6776 6.99527 12.0864 7.14327 12.2843C7.29145 12.4817 9.19285 15.5686 12.2042 16.7562C14.7069 17.743 15.2162 17.5468 15.7594 17.4973C16.3026 17.448 17.5123 16.7808 17.7591 16.089C18.0061 15.3973 18.0061 14.8043 17.932 14.6804C17.858 14.557 17.6604 14.4829 17.3641 14.3348C17.0678 14.1867 15.6112 13.4698 15.3396 13.371C15.068 13.2722 14.8705 13.2229 14.6729 13.5195C14.4754 13.8157 13.908 14.4829 13.7351 14.6804C13.5623 14.8785 13.3894 14.9031 13.0932 14.755C12.7968 14.6063 11.8426 14.2938 10.7106 13.2846C9.82987 12.4993 9.23527 11.5296 9.06243 11.2329C8.88959 10.9367 9.04392 10.7762 9.19248 10.6285C9.32559 10.4958 9.48885 10.2826 9.63713 10.1096C9.78485 9.93663 9.83415 9.81318 9.93294 9.6156C10.0318 9.41783 9.98234 9.24481 9.90838 9.09663C9.83415 8.94844 9.25843 7.48323 8.99499 6.89746Z" fill="white"/>
</g>
<defs>
<linearGradient id="paint0_linear_731_2811" x1="1149.87" y1="2309.67" x2="1149.87" y2="0.414062" gradientUnits="userSpaceOnUse">
<stop stop-color="#1FAF38"/>
<stop offset="1" stop-color="#60D669"/>
</linearGradient>
<linearGradient id="paint1_linear_731_2811" x1="1190.7" y1="2392.07" x2="1190.7" y2="0" gradientUnits="userSpaceOnUse">
<stop stop-color="#F9F9F9"/>
<stop offset="1" stop-color="white"/>
</linearGradient>
<clipPath id="clip0_731_2811">
<rect width="23.814" height="24" fill="white"/>
</clipPath>
</defs>
</svg>
