<svg width="29" height="28" viewBox="0 0 29 28" fill="none" xmlns="http://www.w3.org/2000/svg">
<path d="M13.0992 1.19995C13.0992 0.647666 12.6515 0.199951 12.0992 0.199951C11.5469 0.199951 11.0992 0.647666 11.0992 1.19995H13.0992ZM11.0992 26.7999C11.0992 27.3522 11.5469 27.7999 12.0992 27.7999C12.6515 27.7999 13.0992 27.3522 13.0992 26.7999H11.0992ZM6.49922 2.19995H22.4992V0.199951H6.49922V2.19995ZM26.2992 5.99995V22H28.2992V5.99995H26.2992ZM22.4992 25.7999H6.49922V27.7999H22.4992V25.7999ZM2.69922 22V5.99995H0.699219V22H2.69922ZM6.49922 25.7999C4.40054 25.7999 2.69922 24.0986 2.69922 22H0.699219C0.699219 25.2032 3.29597 27.7999 6.49922 27.7999V25.7999ZM26.2992 22C26.2992 24.0986 24.5979 25.7999 22.4992 25.7999V27.7999C25.7025 27.7999 28.2992 25.2032 28.2992 22H26.2992ZM22.4992 2.19995C24.5979 2.19995 26.2992 3.90127 26.2992 5.99995H28.2992C28.2992 2.7967 25.7025 0.199951 22.4992 0.199951V2.19995ZM6.49922 0.199951C3.29597 0.199951 0.699219 2.7967 0.699219 5.99995H2.69922C2.69922 3.90127 4.40054 2.19995 6.49922 2.19995V0.199951ZM11.0992 1.19995V26.7999H13.0992V1.19995H11.0992ZM12.0992 15H26.4992V13H12.0992V15Z" fill="#587AA9"/>
</svg>
