<svg width="60" height="54" viewBox="0 0 60 54" fill="none" xmlns="http://www.w3.org/2000/svg">
<path d="M30.0013 8.3335C28.5868 8.3335 27.2303 8.8954 26.2301 9.89559C25.2299 10.8958 24.668 12.2523 24.668 13.6668C24.668 15.0813 25.2299 16.4379 26.2301 17.4381C27.2303 18.4383 28.5868 19.0002 30.0013 19.0002C31.4158 19.0002 32.7723 18.4383 33.7725 17.4381C34.7727 16.4379 35.3346 15.0813 35.3346 13.6668C35.3346 12.2523 34.7727 10.8958 33.7725 9.89559C32.7723 8.8954 31.4158 8.3335 30.0013 8.3335ZM30.0013 16.3335C29.2941 16.3335 28.6158 16.0525 28.1157 15.5524C27.6156 15.0523 27.3346 14.3741 27.3346 13.6668C27.3346 12.9596 27.6156 12.2813 28.1157 11.7812C28.6158 11.2811 29.2941 11.0002 30.0013 11.0002C30.7085 11.0002 31.3868 11.2811 31.8869 11.7812C32.387 12.2813 32.668 12.9596 32.668 13.6668C32.668 14.3741 32.387 15.0523 31.8869 15.5524C31.3868 16.0525 30.7085 16.3335 30.0013 16.3335ZM30.0013 35.0002C28.5868 35.0002 27.2303 35.5621 26.2301 36.5623C25.2299 37.5625 24.668 38.919 24.668 40.3335C24.668 41.748 25.2299 43.1045 26.2301 44.1047C27.2303 45.1049 28.5868 45.6668 30.0013 45.6668C31.4158 45.6668 32.7723 45.1049 33.7725 44.1047C34.7727 43.1045 35.3346 41.748 35.3346 40.3335C35.3346 38.919 34.7727 37.5625 33.7725 36.5623C32.7723 35.5621 31.4158 35.0002 30.0013 35.0002ZM30.0013 43.0002C29.2941 43.0002 28.6158 42.7192 28.1157 42.2191C27.6156 41.719 27.3346 41.0407 27.3346 40.3335C27.3346 39.6263 27.6156 38.948 28.1157 38.4479C28.6158 37.9478 29.2941 37.6668 30.0013 37.6668C30.7085 37.6668 31.3868 37.9478 31.8869 38.4479C32.387 38.948 32.668 39.6263 32.668 40.3335C32.668 41.0407 32.387 41.719 31.8869 42.2191C31.3868 42.7192 30.7085 43.0002 30.0013 43.0002ZM59.3346 7.00016C59.3346 6.64654 59.1942 6.3074 58.9441 6.05735C58.6941 5.80731 58.3549 5.66683 58.0013 5.66683H45.7586C45.3738 4.14588 44.4938 2.79623 43.2573 1.8306C42.0208 0.864967 40.4982 0.338262 38.9293 0.333496H21.0733C19.5044 0.338262 17.9818 0.864967 16.7453 1.8306C15.5088 2.79623 14.6288 4.14588 14.244 5.66683H2.0013C1.64768 5.66683 1.30854 5.80731 1.05849 6.05735C0.808444 6.3074 0.667969 6.64654 0.667969 7.00016C0.667969 11.9655 3.1453 16.3468 6.9213 19.0002H2.0013C1.64768 19.0002 1.30854 19.1406 1.05849 19.3907C0.808444 19.6407 0.667969 19.9799 0.667969 20.3335C0.667969 25.2988 3.1453 29.6802 6.9213 32.3335H2.0013C1.64768 32.3335 1.30854 32.474 1.05849 32.724C0.808444 32.9741 0.667969 33.3132 0.667969 33.6668C0.670248 37.3626 2.06819 40.9211 4.58201 43.6303C7.09582 46.3394 10.54 47.9992 14.2253 48.2775C14.6002 49.8119 15.4784 51.1765 16.7197 52.1534C17.961 53.1302 19.4937 53.6631 21.0733 53.6668H38.9293C40.5089 53.6631 42.0416 53.1302 43.2829 52.1534C44.5242 51.1765 45.4024 49.8119 45.7773 48.2775C49.4626 47.9992 52.9068 46.3394 55.4206 43.6303C57.9344 40.9211 59.3324 37.3626 59.3346 33.6668C59.3346 33.3132 59.1942 32.9741 58.9441 32.724C58.6941 32.474 58.3549 32.3335 58.0013 32.3335H53.0813C55.0119 30.9837 56.5884 29.188 57.677 27.099C58.7656 25.01 59.3342 22.6892 59.3346 20.3335C59.3346 19.9799 59.1942 19.6407 58.9441 19.3907C58.6941 19.1406 58.3549 19.0002 58.0013 19.0002H53.0813C55.0119 17.6503 56.5884 15.8547 57.677 13.7657C58.7656 11.6766 59.3342 9.35583 59.3346 7.00016ZM14.0013 45.5922C11.2962 45.2896 8.77438 44.0765 6.84968 42.1518C4.92498 40.2271 3.71181 37.7052 3.4093 35.0002H14.0013V45.5922ZM14.0013 32.2588C11.2962 31.9563 8.77438 30.7431 6.84968 28.8184C4.92498 26.8938 3.71181 24.3719 3.4093 21.6668H14.0013V32.2588ZM14.0013 18.9255C11.2962 18.623 8.77438 17.4098 6.84968 15.4851C4.92498 13.5604 3.71181 11.0386 3.4093 8.3335H14.0013V18.9255ZM43.3346 20.3335V46.5975C43.3325 47.765 42.8676 48.884 42.0418 49.7093C41.2161 50.5345 40.0968 50.9987 38.9293 51.0002H21.0733C19.9054 50.9987 18.7857 50.5342 17.9598 49.7083C17.134 48.8825 16.6694 47.7628 16.668 46.5948V7.4055C16.6694 6.23756 17.134 5.11787 17.9598 4.29201C18.7857 3.46616 19.9054 3.00157 21.0733 3.00016H38.9293C41.3613 3.00283 43.332 4.9735 43.3346 7.4055V20.3335ZM56.5933 35.0002C56.2908 37.7052 55.0776 40.2271 53.1529 42.1518C51.2282 44.0765 48.7064 45.2896 46.0013 45.5922V35.0002H56.5933ZM56.5933 21.6668C56.2908 24.3719 55.0776 26.8938 53.1529 28.8184C51.2282 30.7431 48.7064 31.9563 46.0013 32.2588V21.6668H56.5933ZM46.0013 18.9255V8.3335H56.5933C56.2908 11.0386 55.0776 13.5604 53.1529 15.4851C51.2282 17.4098 48.7064 18.623 46.0013 18.9255ZM30.0013 21.6668C28.5868 21.6668 27.2303 22.2287 26.2301 23.2289C25.2299 24.2291 24.668 25.5857 24.668 27.0002C24.668 28.4146 25.2299 29.7712 26.2301 30.7714C27.2303 31.7716 28.5868 32.3335 30.0013 32.3335C31.4158 32.3335 32.7723 31.7716 33.7725 30.7714C34.7727 29.7712 35.3346 28.4146 35.3346 27.0002C35.3346 25.5857 34.7727 24.2291 33.7725 23.2289C32.7723 22.2287 31.4158 21.6668 30.0013 21.6668ZM30.0013 29.6668C29.2941 29.6668 28.6158 29.3859 28.1157 28.8858C27.6156 28.3857 27.3346 27.7074 27.3346 27.0002C27.3346 26.2929 27.6156 25.6146 28.1157 25.1145C28.6158 24.6144 29.2941 24.3335 30.0013 24.3335C30.7085 24.3335 31.3868 24.6144 31.8869 25.1145C32.387 25.6146 32.668 26.2929 32.668 27.0002C32.668 27.7074 32.387 28.3857 31.8869 28.8858C31.3868 29.3859 30.7085 29.6668 30.0013 29.6668Z" fill="#295BAD"/>
</svg>
