<svg width="32" height="32" viewBox="0 0 32 32" fill="none" xmlns="http://www.w3.org/2000/svg">
<g clip-path="url(#clip0_705_2459)">
<path d="M0.803533 15.8086C0.802789 18.4972 1.5053 21.1224 2.84111 23.4363L0.675781 31.3423L8.76657 29.2209C11.0044 30.4391 13.5117 31.0775 16.0596 31.0776H16.0663C24.4775 31.0776 31.3243 24.2332 31.3279 15.8206C31.3295 11.7441 29.7434 7.91076 26.8617 5.02679C23.9805 2.14307 20.1485 0.554107 16.0657 0.552246C7.65352 0.552246 0.80713 7.39628 0.803657 15.8086" fill="url(#paint0_linear_705_2459)"/>
<path d="M0.257713 15.8035C0.256845 18.5889 0.984535 21.308 2.36798 23.7048L0.125 31.8942L8.5059 29.6967C10.8151 30.9558 13.415 31.6196 16.0606 31.6206H16.0674C24.7804 31.6206 31.8732 24.53 31.8769 15.8162C31.8784 11.5932 30.2353 7.62208 27.2506 4.63479C24.2655 1.64788 20.2965 0.00173643 16.0674 0C7.35303 0 0.261186 7.08961 0.257713 15.8035ZM5.24885 23.292L4.93591 22.7953C3.62044 20.7036 2.92612 18.2865 2.92711 15.8045C2.92984 8.56174 8.82429 2.66915 16.0724 2.66915C19.5825 2.67064 22.8812 4.03895 25.3623 6.52155C27.8433 9.0044 29.2085 12.3049 29.2077 15.8152C29.2044 23.058 23.3099 28.9513 16.0674 28.9513H16.0622C13.704 28.9501 11.3912 28.3168 9.37424 27.12L8.89424 26.8353L3.92085 28.1393L5.24885 23.292Z" fill="url(#paint1_linear_705_2459)"/>
<path d="M12.117 9.19662C11.8211 8.53888 11.5096 8.52561 11.2282 8.51407C10.9978 8.50415 10.7343 8.5049 10.4711 8.5049C10.2077 8.5049 9.77965 8.604 9.41785 8.99904C9.05568 9.39445 8.03516 10.35 8.03516 12.2934C8.03516 14.2369 9.45072 16.1152 9.64806 16.379C9.84564 16.6423 12.3808 20.7582 16.396 22.3415C19.7329 23.6574 20.412 23.3957 21.1362 23.3297C21.8605 23.264 23.4734 22.3744 23.8025 21.452C24.1318 20.5297 24.1318 19.7391 24.033 19.5739C23.9343 19.4093 23.6709 19.3105 23.2758 19.113C22.8808 18.9156 20.9386 17.9598 20.5766 17.8279C20.2144 17.6962 19.9511 17.6305 19.6876 18.026C19.4242 18.4209 18.6677 19.3105 18.4371 19.5739C18.2068 19.838 17.9762 19.8708 17.5813 19.6733C17.186 19.4751 15.9139 19.0584 14.4045 17.7128C13.2302 16.6658 12.4374 15.3727 12.2069 14.9772C11.9765 14.5823 12.1823 14.3682 12.3803 14.1714C12.5578 13.9944 12.7755 13.7101 12.9732 13.4795C13.1702 13.2488 13.2359 13.0842 13.3676 12.8208C13.4995 12.5571 13.4335 12.3264 13.3349 12.1288C13.2359 11.9313 12.4683 9.97764 12.117 9.19662Z" fill="white"/>
</g>
<defs>
<linearGradient id="paint0_linear_705_2459" x1="1533.28" y1="3079.56" x2="1533.28" y2="0.552246" gradientUnits="userSpaceOnUse">
<stop stop-color="#1FAF38"/>
<stop offset="1" stop-color="#60D669"/>
</linearGradient>
<linearGradient id="paint1_linear_705_2459" x1="1587.72" y1="3189.42" x2="1587.72" y2="0" gradientUnits="userSpaceOnUse">
<stop stop-color="#F9F9F9"/>
<stop offset="1" stop-color="white"/>
</linearGradient>
<clipPath id="clip0_705_2459">
<rect width="31.7519" height="32" fill="white" transform="translate(0.125)"/>
</clipPath>
</defs>
</svg>
